<?xml version="1.0" encoding="UTF-8"?>
<svg id="Layer_1" data-name="Layer 1" xmlns="http://www.w3.org/2000/svg" version="1.1" viewBox="0 0 66 82.5">
  <defs>
    <style>
      .cls-1 {
        fill: #000;
        stroke-width: 0px;
      }
    </style>
  </defs>
  <path class="cls-1" d="M23.4,8.2l9.6,13.8,9.7-14c1.6-2.3-2.7-3.6-4.6,0-2.1,4-7.7,4.1-10.1.3-2.5-4.1-6.1-2.2-4.6-.1Z"/>
  <path class="cls-1" d="M55.7,55.6c1.7-1.7,1.7-4.4,0-6-1.7-1.7-4.4-1.7-6,0-1.7,1.7-1.7,4.4,0,6,1.6,1.6,4.3,1.6,6,0Z"/>
  <path class="cls-1" d="M43.7,8.7l-3,16.6,16.8-3c2.8-.5.8-4.5-3.2-3.3-4.3,1.3-8.4-2.6-7.3-7,1-4.5-2.8-5.9-3.3-3.3Z"/>
  <path class="cls-1" d="M58,38.1c-4-2.1-4.1-7.8-.3-10.1,4-2.4,2.1-6.1,0-4.6l-13.8,9.6,14,9.7c2.4,1.6,3.7-2.7,0-4.6Z"/>
  <path class="cls-1" d="M33.1,43.9l-9.7,14c-1.6,2.4,2.6,3.7,4.6,0,2.1-4,7.8-4.1,10.1-.3,2.4,4,6.1,2.1,4.6,0l-9.6-13.8Z"/>
  <path class="cls-1" d="M57.3,43.7l-16.6-3,3,16.8c.5,2.8,4.5.8,3.3-3.2-1.3-4.3,2.6-8.4,7-7.3,4.6,1.1,5.8-2.9,3.3-3.3Z"/>
  <path class="cls-1" d="M37.3,60.7c0-2.4-1.9-4.3-4.3-4.3s-4.3,1.9-4.3,4.3,1.9,4.3,4.3,4.3,4.3-1.9,4.3-4.3Z"/>
  <circle class="cls-1" cx="60.7" cy="32.9" r="4.3"/>
  <path class="cls-1" d="M16.4,55.7c1.7-1.7,1.7-4.4,0-6-1.7-1.7-4.4-1.7-6,0-1.7,1.7-1.7,4.4,0,6,1.7,1.6,4.4,1.6,6,0Z"/>
  <path class="cls-1" d="M16.4,16.4c1.7-1.7,1.7-4.4,0-6-1.7-1.7-4.4-1.7-6,0-1.7,1.7-1.7,4.4,0,6,1.6,1.7,4.3,1.7,6,0Z"/>
  <path class="cls-1" d="M5.3,37.3c2.4,0,4.3-1.9,4.3-4.3s-1.9-4.3-4.3-4.3-4.3,1.9-4.3,4.3,1.9,4.3,4.3,4.3Z"/>
  <path class="cls-1" d="M8.3,38c-4,2.4-2.1,6.1,0,4.6l13.8-9.6-14-9.7c-2.4-1.6-3.7,2.7-.1,4.6,4,2.2,4.1,7.8.3,10.1Z"/>
  <path class="cls-1" d="M11.7,47.1c4.3-1.3,8.4,2.6,7.3,7-1.1,4.6,2.8,5.8,3.2,3.3l3-16.6-16.8,3c-2.7.5-.6,4.5,3.3,3.3Z"/>
  <path class="cls-1" d="M8.7,22.3l16.6,3-3-16.8c-.5-2.8-4.5-.8-3.3,3.2,1.3,4.3-2.6,8.4-7,7.3-4.6-1.1-5.8,2.9-3.3,3.3Z"/>
  <path class="cls-1" d="M55.6,16.4c1.7-1.7,1.7-4.4,0-6-1.7-1.7-4.4-1.7-6,0-1.7,1.7-1.7,4.4,0,6,1.6,1.6,4.3,1.6,6,0Z"/>
  <path class="cls-1" d="M32.9,9.5c2.4,0,4.3-1.9,4.3-4.3s-1.9-4.3-4.3-4.3-4.3,1.9-4.3,4.3c0,2.4,2,4.3,4.3,4.3Z"/>
</svg>