<?xml version="1.0" encoding="UTF-8"?>
<svg id="Layer_1" data-name="Layer 1" xmlns="http://www.w3.org/2000/svg" version="1.1" viewBox="0 0 68 85">
  <defs>
    <style>
      .cls-1 {
        fill: #000;
        stroke-width: 0px;
      }
    </style>
  </defs>
  <path class="cls-1" d="M58.3,47.2c-3.8,0-6.9,2.6-8,5.8l-5.2-3c.8-1.8,1.3-3.7,1.3-5.8s-.5-4.1-1.3-5.9l4.3-2.5c1.5,2.7,4.3,4.5,7.6,4.5h0c4.8,0,8.6-3.9,8.6-8.6s-3.9-8.6-8.6-8.6h0c-4.8,0-8.6,3.9-8.6,8.7s0,1.5.3,2.2l-4.5,2.6c-2.2-3.3-5.9-5.5-10.1-5.8v-3.4c4.3-.5,7.7-4.2,7.7-8.6s-.9-4.5-2.6-6.1c-1.6-1.6-3.8-2.5-6-2.5h0c-4.7,0-8.6,3.9-8.6,8.7s3.4,8,7.6,8.5v3.4c-4.2.3-7.8,2.5-10.1,5.8l-4.1-2.4c.1-.6.2-1.2.2-1.8h0c0-4.7-3.8-8.4-8.5-8.4S1.3,27.8,1.3,32.5c-.1,4.7,3.7,8.5,8.3,8.5h0c3.4,0,6.2-2,7.6-4.8l3.7,2.2c-.9,1.8-1.3,3.8-1.3,5.9s.5,4,1.3,5.8l-3.6,2.1c-1.5-2.4-4.1-4-7.1-4h0c-4.7,0-8.4,3.8-8.4,8.5s3.8,8.4,8.4,8.4h0c4.6,0,8.4-3.8,8.4-8.4h0c0-.9-.2-1.8-.4-2.6l3.8-2.2c2.2,3.3,5.9,5.5,10.1,5.8v2.9c-4.3.5-7.6,4.2-7.6,8.6s3.9,8.6,8.6,8.6h0c4.7,0,8.6-3.9,8.6-8.7s-3.5-8.1-7.7-8.5v-2.9c4.2-.3,7.9-2.5,10.1-5.8l5.8,3.3v.6c0,4.6,3.8,8.4,8.4,8.4h0c4.6,0,8.4-3.8,8.4-8.4h0c0-4.8-3.7-8.6-8.4-8.6h0ZM56.9,33.9q0,0,0,0c-1,0-1.7-.8-1.7-1.7v-1.7h3.4v1.7c0,.9-.8,1.7-1.7,1.7ZM56.9,25.2h0c3.7,0,6.6,2.9,6.6,6.6s-.4,2.7-1.1,3.7c-.5-.9-1.3-1.6-2.1-2.1.2-.4.2-.8.2-1.3v-1.9c0-2-1.7-3.7-3.7-3.7h0c-2.1,0-3.7,1.7-3.7,3.7v1.9c0,.5,0,1,.3,1.4-.6.3-1.4,1.1-1.9,2-.7-1-1.2-2.4-1.2-3.7,0-3.6,2.9-6.5,6.6-6.6ZM9.5,34.5h0c-.9,0-1.7-.8-1.7-1.6v-1.6h3.3v1.6c0,.9-.7,1.6-1.6,1.6ZM15,36.2c-.5-.8-1.2-1.5-2-2,.1-.2.2-.7.2-1.3v-1.9c0-2-1.7-3.6-3.7-3.6h0c-2.1,0-3.7,1.7-3.6,3.7v1.9c0,.5,0,1,.3,1.4-.7.5-1.4,1.2-1.8,1.9-.7-1-1.1-2.3-1.1-3.6,0-3.6,2.9-6.5,6.4-6.5h0c3.5,0,6.4,2.8,6.4,6.4s-.4,2.6-1.1,3.6ZM10.1,58.6h0c-.9,0-1.6-.8-1.6-1.6v-1.6h3.3v1.6c-.1.8-.8,1.6-1.7,1.6ZM15.5,60.2c-.5-.8-1.2-1.5-2-2,.3-.9.2-3.3.2-3.4-.2-2-1.9-3.4-3.6-3.3-2,0-3.6,1.6-3.6,3.7s0,2.3.3,3.3c-.7.5-1.4,1.2-1.8,1.9-.7-1-1.1-2.3-1.1-3.6,0-3.5,2.9-6.5,6.4-6.5h0c3.3,0,6.4,2.7,6.4,6.4-.1,1.3-.5,2.5-1.2,3.5ZM29.3,19.2c0,.5.1,1,.3,1.4-.8.5-1.4,1.2-1.9,2-.8-1.1-1.2-2.4-1.2-3.7,0-3.6,2.9-6.6,6.6-6.6h0c3.7,0,6.6,3,6.6,6.6s-.4,2.7-1.1,3.7c-.5-.9-1.3-1.6-2.1-2.1.2-.4.2-.8.2-1.3v-1.9c0-2-1.7-3.7-3.7-3.7h0c-2,0-3.7,1.7-3.7,3.7v1.9ZM31.3,19.2v-1.7h3.4v1.7c0,1-.8,1.7-1.6,1.7h0c-.9,0-1.7-.7-1.7-1.7h-.1ZM33,71.1h0c-1,0-1.7-.8-1.7-1.7v-1.7h3.4v1.7c0,1-.8,1.7-1.7,1.7ZM39.7,69.1c0,1.3-.4,2.6-1.1,3.7-.5-.9-1.3-1.6-2.1-2.1h0c.4-.9.2-1.6.2-3.2s-1.5-3.6-3.6-3.7h0c-2,0-3.7,1.6-3.7,3.7.1,1.6-.1,2.3.3,3.3-.8.5-1.4,1.2-1.9,2-.7-1.1-1.2-2.3-1.2-3.7,0-3.6,2.9-6.6,6.6-6.6s6.6,2.9,6.6,6.6ZM33,55.7c-6.3,0-11.4-5.1-11.4-11.4s5.1-11.4,11.4-11.4,11.4,5.2,11.4,11.4-5,11.4-11.4,11.4ZM58.3,57.6c-.9,0-1.6-.8-1.6-1.6v-1.6h3.3v1.6c0,.9-.9,1.6-1.7,1.6ZM63.7,59.3c-.5-.8-1.2-1.5-2-2,0-.4.2-.8.2-1.3v-1.9c0-2-1.7-3.6-3.7-3.6s-3.6,1.6-3.6,3.7v1.9c0,.5,0,1,.3,1.4-.7.5-1.4,1.2-1.8,1.9-.8-1.1-1.1-2.4-1.1-3.6,0-3.7,3-6.5,6.4-6.5h0c3.5,0,6.4,2.9,6.4,6.4s-.4,2.5-1.1,3.6Z"/>
  <circle class="cls-1" cx="33.1" cy="44" r="7.3"/>
</svg>