<?xml version="1.0" encoding="UTF-8"?>
<svg id="Layer_1" data-name="Layer 1" xmlns="http://www.w3.org/2000/svg" version="1.1" viewBox="0 0 100 125">
  <defs>
    <style>
      .cls-1 {
        fill: #000;
        stroke-width: 0px;
      }
    </style>
  </defs>
  <path class="cls-1" d="M82,35c-.6,0-1.3,0-1.9.1-1-2-2.2-3.9-3.6-5.6.5-.7.8-1.6.8-2.5,0-2.4-2-4.4-4.4-4.4s-1.8.3-2.5.8c-1.8-1.4-3.6-2.5-5.6-3.5,0-.6.1-1.2.1-1.9,0-8.5-7-15.5-15.5-15.5s-15.5,7-15.5,15.5,0,1.3.1,1.9c-2,1-3.9,2.2-5.6,3.5-.7-.5-1.6-.8-2.5-.8-2.4,0-4.4,2-4.4,4.4s.3,1.8.8,2.5c-1.5,2-2.8,4.1-3.9,6.3,0,0,0,.2,0,.3-.5,0-1,0-1.5,0-8,0-14.5,6.5-14.5,14.5s6.5,14.5,14.5,14.5,1,0,1.5,0c0,.1,0,.2,0,.3,1.1,2.2,2.4,4.4,3.9,6.3-.5.7-.8,1.6-.8,2.5,0,2.4,2,4.4,4.4,4.4s1.8-.3,2.5-.8c1.9,1.5,4,2.8,6.3,3.9,0,0,.2,0,.3,0,0,.5,0,1,0,1.5,0,8,6.5,14.5,14.5,14.5s14.5-6.5,14.5-14.5,0-1,0-1.5c.1,0,.2,0,.3,0,2.2-1,4.4-2.4,6.3-3.9.7.5,1.6.8,2.5.8,2.4,0,4.4-2,4.4-4.4s-.3-1.8-.8-2.5c1.4-1.8,2.5-3.6,3.5-5.6.6,0,1.2.1,1.9.1,8.6,0,15.5-7,15.5-15.5s-7-15.5-15.5-15.5ZM71.3,25.4h0s0,0,0,0c.4-.4,1-.7,1.7-.7,1.3,0,2.3,1,2.3,2.3s-1,2.3-2.3,2.3-2.3-1-2.3-2.3.2-1.2.6-1.6ZM49.5,4.6c7.4,0,13.4,6,13.4,13.4s-6,13.4-13.4,13.4-13.4-6-13.4-13.4,6-13.4,13.4-13.4ZM26,24.7c1.3,0,2.3,1,2.3,2.3s-1,2.3-2.3,2.3-1.2-.2-1.6-.6t0,0h0c-.4-.4-.7-1-.7-1.7,0-1.3,1-2.3,2.3-2.3ZM10.3,57.5c-1.1,0-2-.9-2-1.9v-7.8c0-1.1.9-2,2-2h2.5c0,0,.2,0,.2-.2l.7-1.2c.4-.6,1-1,1.7-1h3.2c.7,0,1.4.4,1.7,1l.7,1.2c0,0,.1.2.2.2h2.5c1.1,0,1.9.9,1.9,2v7.8c0,1.1-.9,1.9-1.9,1.9h-13.3ZM26,76.3c-1.3,0-2.3-1-2.3-2.3s1-2.3,2.3-2.3,2.3,1,2.3,2.3-1,2.3-2.3,2.3ZM47.9,82h3.1c1.8,0,3.3,1.5,3.3,3.3s-1.5,3.3-3.3,3.3h-.5v1.7c0,.6-.5,1-1,1s-1.1-.5-1.1-1v-1.7h-2.8c-.6,0-1.1-.5-1.1-1s.5-1,1.1-1h5.3c.7,0,1.2-.6,1.2-1.2s-.5-1.2-1.2-1.2h-3.1c-1.8,0-3.3-1.5-3.3-3.3s1.5-3.3,3.3-3.3h.5v-1.7c0-.6.5-1,1.1-1s1,.5,1,1v1.7h2.8c.6,0,1,.5,1,1s-.5,1-1,1h-5.4c-.7,0-1.2.5-1.2,1.2s.5,1.2,1.2,1.2ZM73,76.3c-1.3,0-2.3-1-2.3-2.3s1-2.3,2.3-2.3,2.3,1,2.3,2.3-1,2.3-2.3,2.3ZM75,70.1c-.6-.3-1.3-.5-2-.5-2.4,0-4.4,2-4.4,4.4s.2,1.4.5,2c-1.8,1.4-3.6,2.5-5.6,3.5-1.6-6.3-7.2-10.9-14-10.9s-12.4,4.7-14,10.9c-2-1-3.9-2.1-5.6-3.5.3-.6.5-1.3.5-2,0-2.4-2-4.4-4.4-4.4s-1.4.2-2,.5c-1.3-1.8-2.5-3.6-3.5-5.6,6.3-1.6,10.9-7.2,10.9-14s-4.7-12.4-10.9-14c.9-2,2.1-3.8,3.5-5.6.6.3,1.3.5,2,.5,2.4,0,4.4-2,4.4-4.4s-.2-1.4-.5-2c1.5-1.1,3-2.1,4.7-3,1.8,6.6,7.8,11.5,15,11.5s13.2-4.9,15-11.5c1.6.8,3.2,1.8,4.6,3-.3.6-.5,1.3-.5,2,0,2.4,2,4.4,4.4,4.4s1.4-.2,2-.5c1.1,1.5,2.1,3,3,4.7-6.6,1.8-11.5,7.8-11.5,15s4.9,13.2,11.5,15c-.9,1.6-1.9,3.2-3,4.6ZM82,64c-7.4,0-13.4-6-13.4-13.4s6-13.4,13.4-13.4,13.4,6,13.4,13.4-6,13.4-13.4,13.4Z"/>
  <path class="cls-1" d="M17,48.1c-2,0-3.6,1.6-3.6,3.6s1.6,3.6,3.6,3.6,3.6-1.6,3.6-3.6-1.6-3.6-3.6-3.6Z"/>
  <path class="cls-1" d="M88.6,41.2l-6.7-1c-.5,0-1,0-1.3.4-.4.3-.6.8-.6,1.3v11.5c-.6-.3-1.3-.5-2-.5-2.2,0-4.1,1.8-4.1,4.1s1.8,4.1,4.1,4.1,4.1-1.8,4.1-4.1v-10.3l6,.9c.5,0,1,0,1.3-.4.4-.3.6-.8.6-1.3v-3c0-.8-.6-1.5-1.4-1.6ZM78.1,58.8c-1.1,0-2-.9-2-2s.9-2,2-2,2,.9,2,2-.9,2-2,2ZM87.9,45.3l-5.8-.9v-2.1l5.8.9v2.1Z"/>
  <path class="cls-1" d="M57.2,18c0,1.1-.6,2.1-1.5,2.6l-7.4,4.2c-.5.3-1,.4-1.5.4s-1-.1-1.5-.4c-.9-.5-1.5-1.5-1.5-2.6v-8.5c0-1.1.6-2.1,1.5-2.6,1-.6,2.1-.6,3,0l7.4,4.2c1,.5,1.5,1.5,1.5,2.6Z"/>
</svg>