<?xml version="1.0" encoding="UTF-8"?>
<svg id="Layer_1" data-name="Layer 1" xmlns="http://www.w3.org/2000/svg" version="1.1" viewBox="0 0 126 157.1">
  <defs>
    <style>
      .cls-1 {
        fill: #000;
        stroke-width: 0px;
      }
    </style>
  </defs>
  <path class="cls-1" d="M124.5,60.9c-1.3-1.7-3.3-2.6-5.5-2.6h-44.3l-3.3-15.5c-.1-.5-.6-.9-1.2-.8l-17.7,3.7c-.5.1-.9.6-.8,1.2l2.4,11.4h-21.4c-3.3,0-6.1,2.2-6.9,5.5l-.9,4-.3-1.1c-.7-2.4-2.9-4.1-5.4-4.1h-.6v-6.8c0-.6-.4-1-1-1h-7.1c-.6,0-1,.4-1,1v6.8h-4c-1.8,0-3.4.8-4.4,2.2-1.1,1.4-1.4,3.2-.9,4.9l14,49.4c1.1,3.8,4.6,6.5,8.6,6.5h88.7c.1,0,.3,0,.4,0,0,0,0,0,0,0,0,0,.2-.1.2-.2,0,0,0,0,0,0,0,0,0,0,0,0,0-.1.1-.2.2-.4l13.3-58.1c.5-2.1,0-4.3-1.4-5.9ZM69.6,44.2l3.2,15.4h0l.8,4-15.8,3.3-4.1-19.4,15.8-3.3ZM11.5,56.8h5.1v5.8h-5.1v-5.8ZM22.8,123.7c-3.1,0-5.9-2.1-6.7-5.1L2.1,69.2c-.3-1.1,0-2.2.6-3.1.7-.9,1.7-1.4,2.9-1.4h13.7c1.6,0,3,1.1,3.4,2.6l1.4,4.9c0,0,0,.1,0,.2,0,0,0,0,0,0,0,0,.1.2.2.3,0,0,0,0,0,0,0,0,.2,0,.3.1,0,0,0,0,0,0,0,0,.1,0,.2,0h64.9c3.5,0,6.6,2.3,7.5,5.7l12.8,45.2s-87.4,0-87.4,0Z"/>
  <path class="cls-1" d="M69.7,110.6c0,0,0-.1-.1-.2,0,0,0,0,0-.1,0,0,0,0-.1-.1,0,0-.1,0-.2-.1,0,0,0,0-.1,0,0,0-.2,0-.3,0,0,0,0,0,0,0l-6.2-.3v-4.6c.1,0,3.9.1,3.9.1.1,0,.2,0,.3,0,0,0,0,0,0,0,0,0,0,0,0,0,.2,0,.4-.2.5-.4,0,0,0,0,0,0,0,0,0-.1,0-.2,0,0,0-.1,0-.2,0,0,0,0,0,0,0,0,0-.1,0-.2,0,0,0-.1,0-.2l-1.8-5.5c-.1-.4-.5-.7-.9-.7h-20.5l-2.1-7.9c-.1-.4-.2-.8-.2-1.2,0-2.6,2.1-4.6,4.7-4.6s6.2,2.2,7.1,5.4l1.2,4.6c.1.4.5.7,1,.7h5.5c.3,0,.6-.1.8-.4s.3-.6.2-.9l-1.5-5.5c0-.3-.4-.6-.7-.7l-1.1-.3.6-1.3c.1-.3.1-.6,0-.9-2.5-4.9-7.5-7.9-13-7.9h-1.7c-3.4,0-6.5,1.5-8.6,4.2-2.1,2.7-2.7,6.1-1.8,9.3l2,7.3h-1.9c-.3,0-.6.2-.8.4s-.2.6-.1.9l4.9,15.1c1.2,3.8,4.8,6.4,8.8,6.4h15.1c2.4,0,4.6-1.1,6.1-3.1,1.4-2,1.8-4.4,1.1-6.7,0,0,0,0,0,0ZM67.1,116.2c-1,1.4-2.7,2.3-4.5,2.3h-7.7l-1.4-6.3c1.5-.7,2.5-2.2,2.5-3.9s-2-4.4-4.4-4.4-4.4,2-4.4,4.4,2,4.4,4.4,4.4l1.3,5.8h-5.4c-3.2,0-5.9-2-6.9-5l-4.5-13.8h28l1.1,3.5h-3.3c-.3-.1-.5,0-.7.2-.2.2-.3.4-.3.7v5.7c-.1,0-2.7.4-2.7.4-.3,0-.6.3-.8.6l-1.4,3c-.2.5,0,1.1.5,1.3.1,0,.3,0,.4,0,.4,0,.7-.2.9-.6l1.1-2.5,2.8-.4,6.3.3c.3,1.5,0,3-.9,4.3Z"/>
  <path class="cls-1" d="M7.7,29.1l8.4,22.4c.2.4.5.6.9.6s.2,0,.4,0l17.5-6.6c.2,0,.5-.3.6-.5.1-.2.1-.5,0-.8l-8.4-22.4c0-.2-.3-.4-.5-.6-.2-.1-.5-.1-.8,0l-17.5,6.6c-.5.2-.8.8-.6,1.3ZM25.5,23.4l7.7,20.5-15.6,5.9-7.7-20.5,15.6-5.9Z"/>
  <path class="cls-1" d="M65.7,24.7l17.8,5.7c0,0,.2,0,.3,0,.2,0,.3,0,.5-.1.2-.1.4-.3.5-.6l7.2-22.8c.2-.5-.1-1.1-.6-1.3L73.6,0c-.3,0-.5,0-.8,0-.2.1-.4.3-.5.6l-7.2,22.8c-.2.5.1,1.1.6,1.3ZM73.9,2.3l15.9,5.1-6.6,20.9-15.9-5.1,6.6-20.9Z"/>
  <path class="cls-1" d="M94.7,44.6c0,.2.3.4.5.6.1,0,.3,0,.4,0s.2,0,.4,0l5-1.9c.5-.2.8-.8.6-1.3l-2.5-6.6c0-.2-.3-.4-.5-.6-.2-.1-.5-.1-.8,0l-5.1,1.9c-.2,0-.4.3-.6.5-.1.2-.1.5,0,.8l2.5,6.6ZM97.7,37.1l1.8,4.7-3.2,1.2-1.8-4.7,3.2-1.2Z"/>
  <path class="cls-1" d="M109.8,16.6c.2.1.4.2.6.2.3,0,.6-.1.8-.4l4.1-5.7c.3-.4.2-1.1-.2-1.4l-4.4-3.1c-.4-.3-1.1-.2-1.4.2l-4.1,5.7c-.2.2-.2.5-.2.7,0,.3.2.5.4.6l4.4,3.1ZM110.3,8.3l2.8,2-2.9,4.1-2.8-2,2.9-4.1Z"/>
  <path class="cls-1" d="M39.2,16.6c.2.1.4.2.6.2.3,0,.6-.1.8-.4l4.1-5.7c.2-.2.2-.5.2-.7,0-.3-.2-.5-.4-.6l-4.4-3.1c-.5-.3-1.1-.2-1.4.2l-4.1,5.7c-.3.4-.2,1.1.2,1.4l4.4,3.1ZM39.7,8.3l2.8,2-2.9,4.1-2.8-2,2.9-4.1Z"/>
  <path class="cls-1" d="M4.5,12c.1.4.5.7,1,.7s.2,0,.3,0l5.1-1.6c.3,0,.5-.3.6-.5.1-.2.1-.5,0-.8l-2.2-6.7c-.2-.5-.7-.8-1.3-.6l-5.1,1.7c-.3,0-.5.3-.6.5-.1.2-.1.5,0,.8l2.2,6.7ZM7.7,4.6l1.5,4.8-3.2,1-1.5-4.8,3.2-1Z"/>
</svg>