<?xml version="1.0" encoding="UTF-8"?>
<svg id="Layer_1" data-name="Layer 1" xmlns="http://www.w3.org/2000/svg" version="1.1" viewBox="0 0 12.7 15.9">
  <defs>
    <style>
      .cls-1 {
        fill: #000;
        stroke-width: 0px;
      }
    </style>
  </defs>
  <path class="cls-1" d="M6.3.5L1.3,2.7s-.2,4.4,1.2,6.5c1.1,1.8,3.2,2.7,3.9,2.9.7-.3,2.8-1.1,3.9-2.9,1.3-2.1,1.2-6.5,1.2-6.5L6.3.5ZM5.2,3.7c.1,0,.2,0,.2.2.4.6,1.1.7,1.9.8,1.1,0,1.9.8,1.9.8-.8.3-1.4.5-1.9,1.1-.5.6-1.1.8-1.9.4v2.1h-.4V3.9c0-.1,0-.2.2-.2h0Z"/>
</svg>