<?xml version="1.0" encoding="UTF-8"?>
<svg id="Layer_1" data-name="Layer 1" xmlns="http://www.w3.org/2000/svg" version="1.1" viewBox="0 0 33 41.2">
  <defs>
    <style>
      .cls-1 {
        fill: #000;
        stroke-width: 0px;
      }
    </style>
  </defs>
  <path class="cls-1" d="M18.6,12.8c0-.3,0-.5-.1-.8l-3.8-1.6c-.1.7-.2,1.5-.4,2.3l3.7,1.6c.2-.5.4-1,.5-1.5Z"/>
  <path class="cls-1" d="M15.2,7.5c-.1.7-.2,1.5-.4,2.3l3.5,1.5c-.1-.9-.3-1.8-.4-2.6l-2.7-1.2Z"/>
  <path class="cls-1" d="M15.6,5.5c0,.3-.1.8-.2,1.3l2.5,1.1c-.2-1-.3-1.8-.4-2.4.2,0,.5-.2.7-.4.3-.3.9-1.2.6-1.6-.3-.4-1.4-.7-2.2-.7s-1.9.2-2.2.7c-.3.4.3,1.3.6,1.6.2.2.4.3.7.4Z"/>
  <path class="cls-1" d="M14.6,13.5c1,2.6,1.9,4.7,1.9,4.7,0,0,.6-1.4,1.4-3.4l-3.3-1.4Z"/>
  <path class="cls-1" d="M30,6.8c-.3-1.1-2.3-1.9-4.5-2.8s-3.7-2.4-3.7-2.4c1.1,4.6-5.3,18.9-5.3,18.9,0,0-6.4-14.4-5.3-18.9,0,0-1.5,1.5-3.7,2.4-2.2.9-4.2,1.7-4.5,2.8C2.7,8,0,26.5.6,31.4h5.6s.4-10.8.7-12.2c0,0,.9,3.8,1.1,6.3,0,1.4-.4,5-.4,5.9h8.2c.5-2,.8-4,.8-4,0,0,.3,2,.8,4h8.2c0-.8-.5-4.5-.4-5.9.2-2.6,1.1-6.3,1.1-6.3.4,1.3.7,12.2.7,12.2h5.6c.5-4.9-2.2-23.5-2.4-24.6ZM16.5,25.5c-.4,0-.7-.3-.7-.7s.3-.7.7-.7.7.3.7.7-.3.7-.7.7ZM25.5,13.2h-4.4v-1.1h4.4v1.1Z"/>
</svg>