<?xml version="1.0" encoding="UTF-8"?>
<svg id="Layer_1" data-name="Layer 1" xmlns="http://www.w3.org/2000/svg" version="1.1" viewBox="0 0 100 125">
  <defs>
    <style>
      .cls-1 {
        fill: #000;
        stroke-width: 0px;
      }
    </style>
  </defs>
  <path class="cls-1" d="M50,40.3c-5.4,0-9.7,4.3-9.7,9.7s4.3,9.7,9.7,9.7,9.7-4.3,9.7-9.7c0-5.3-4.4-9.6-9.7-9.7ZM50,53.7c-2,0-3.7-1.7-3.7-3.7s1.7-3.7,3.7-3.7,3.7,1.7,3.7,3.7h0c0,2-1.7,3.6-3.7,3.7Z"/>
  <path class="cls-1" d="M84.9,18.1c0-1.6-1.4-2.9-3-3h-11.2V4.7h-6v10.4h-5.8V4.7h-6v10.4h-5.8V4.7h-6v10.4h-5.8V4.7h-6v10.4h-11.2c-1.6,0-2.9,1.4-3,3v11.2H4.7v6h10.4v5.8H4.7v6h10.4v5.8H4.7v6h10.4v5.8H4.7v6h10.4v11.2c0,1.6,1.4,2.9,3,3h11.2v10.4h6v-10.4h5.8v10.4h6v-10.4h5.8v10.4h6v-10.4h5.8v10.4h6v-10.4h11.2c1.6,0,2.9-1.4,3-3v-11.2h10.4v-6h-10.4v-5.8h10.4v-6h-10.4v-5.8h10.4v-6h-10.4v-5.8h10.4v-6h-10.4v-11.2ZM73.4,52.8c0,1.5-1.1,2.7-2.5,2.9l-2.2.4c-.3,1-.7,1.9-1.1,2.8l1.3,1.9c.8,1.2.7,2.8-.4,3.8l-3.9,3.9c-1,1.1-2.6,1.2-3.8.4l-1.9-1.3-2.8,1.1-.4,2.2c-.2,1.4-1.4,2.5-2.9,2.5h-5.6c-1.5,0-2.7-1.1-2.9-2.5l-.4-2.2-2.8-1.1-1.9,1.3c-1.2.8-2.8.7-3.8-.4l-3.9-3.9c-1.1-1-1.2-2.6-.4-3.8l1.3-1.9c-.4-.9-.8-1.8-1.1-2.8l-2.2-.4c-1.4-.2-2.5-1.4-2.5-2.9v-5.6c0-1.5,1.1-2.7,2.5-2.9l2.2-.4c.3-1,.7-1.9,1.1-2.8l-1.3-1.9c-.8-1.2-.7-2.8.4-3.8l3.9-3.9c1-1.1,2.6-1.2,3.8-.4l1.9,1.3,2.8-1.1.4-2.2c.2-1.4,1.4-2.5,2.9-2.5h5.6c1.5,0,2.7,1.1,2.9,2.5l.4,2.2,2.8,1.1,1.9-1.3c1.2-.8,2.8-.7,3.8.4l3.9,3.9c1.1,1,1.2,2.6.4,3.8l-1.3,1.9c.4.9.8,1.8,1.1,2.8l2.2.4c1.4.2,2.5,1.4,2.5,2.9v5.6Z"/>
</svg>