<?xml version="1.0" encoding="UTF-8"?>
<svg id="Layer_1" data-name="Layer 1" xmlns="http://www.w3.org/2000/svg" viewBox="0 0 353.69 94.79">
  <defs>
    <style>
      .cls-1 {
        fill: #39b54a;
        stroke-width: 0px;
      }
    </style>
  </defs>
  <path class="cls-1" d="M0,83.53h8.32v-49.04H1.38v-11.51h22.56c.66,10.13,0,20.2.21,30.28.2,10.05.04,20.1.04,30.27h9.66v11.26H0v-11.26Z"/>
  <path class="cls-1" d="M353.69,51.06c-.37,2.01-.6,4.06-1.13,6.03-1.7,6.4-5.05,11.69-11.2,14.61-7,3.32-13.84,2.69-20.28-1.67-.29-.19-.62-.59-.62-.9-.04-3.78-.03-7.55-.03-11.33.12-.09.23-.17.35-.26.18.3.31.64.54.88,4.49,4.69,11.94,3.48,14.67-2.41,1.62-3.48,1.79-7.2,1.31-10.91-.24-1.89-.77-3.85-1.64-5.54-2.72-5.23-10.11-6.24-14.33-2.11-.23.22-.46.45-.8.78-.04-.38-.1-.64-.1-.9,0-3.21.02-6.42-.02-9.63,0-.75.29-1.17.85-1.6,8.68-6.71,22.77-5.01,28.95,6.83,1.89,3.62,2.93,7.49,3.28,11.56.03.31.13.62.2.93v5.63Z"/>
  <path class="cls-1" d="M295.25,22.98h22.63v60.52h9.78v11.22h-33.75v-11.17h8.21v-49.05h-6.87v-11.51Z"/>
  <path class="cls-1" d="M158.17,34.5h-8.48v-11.5h22.97v11.76c3.77-8.59,10.14-12.93,19.68-12.46v14.77c-2.09.32-4.19.6-6.26.98-7.89,1.45-11.04,6.36-11.78,13.42-.31,3-.19,6.05-.27,9.08,0,.17.04.34.08.6h9.62v11.32h-34.49v-11.28h8.93v-26.68Z"/>
  <path class="cls-1" d="M264.75,34.5h-6.18v-11.56h6.19c0-2.4-.02-4.66.02-6.93,0-.4.2-.94.5-1.16,4.86-3.55,9.75-7.07,14.63-10.58.13-.1.3-.16.58-.3v18.91h9.07v11.57h-9.06v1.19c0,6.71,0,13.42,0,20.13,0,.75.02,1.52.18,2.25.41,1.88,1.42,2.78,3.32,2.74,1.42-.02,2.84-.33,4.26-.53.42-.06.82-.22,1.34-.37,0,3.56,0,7.02-.02,10.47,0,.21-.25.53-.45.6-5.24,1.95-10.58,3.16-16.17,1.78-4.59-1.14-7.49-4.54-8-9.24-.14-1.25-.21-2.52-.21-3.78-.02-7.94,0-15.87,0-23.81v-1.4Z"/>
  <path class="cls-1" d="M26.62,57.45c1.68,2.03,3.5,3.26,5.86,3.67,4.03.7,7.69-1.06,9.53-4.74,1.6-3.19,1.91-6.64,1.6-10.12-.17-1.88-.55-3.8-1.2-5.56-2.69-7.2-11.75-7.02-15.13-2.98-.14.16-.27.34-.56.71-.05-.57-.09-.87-.09-1.17,0-3.17.02-6.35-.02-9.52-.01-.73.24-1.18.81-1.6,9.21-6.95,22.05-4.48,28.2,5.46,2.38,3.84,3.61,8.08,4.03,12.53.56,5.85.13,11.61-2.32,17.05-2.99,6.64-7.89,11-15.21,12.27-5.46.94-10.44-.31-14.95-3.48-.27-.19-.53-.62-.53-.94-.04-3.75-.02-7.5-.02-11.57Z"/>
  <path class="cls-1" d="M102.89,44.47c-3.14,9.6-6.29,19.2-9.44,28.81h-12.34c.12-.44.2-.82.33-1.19,5.47-16.07,10.96-32.13,16.42-48.2.24-.72.55-1.01,1.36-1,3.71.05,7.43.04,11.14,0,.65,0,.93.19,1.13.82,2.73,8.41,5.5,16.82,8.23,25.23.14.42.21.95.08,1.35-2.31,7.34-4.66,14.67-7.01,22-.04.12-.09.23-.24.61-3.19-9.65-6.3-19.04-9.41-28.44-.09,0-.17,0-.26,0Z"/>
  <path class="cls-1" d="M248.3,10.74c1.95,3.8,2.43,7.71,2.03,11.77-.62,6.24-4.2,10.74-8.92,14.36-3.62,2.78-7.51,5.21-11.36,7.69-4.1,2.65-8.18,5.33-11.22,9.22-1.1,1.4-1.85,3.07-2.77,4.61-.2.33-.39.71-.69.91-5.33,3.56-10.68,7.1-16.03,10.64-.11.07-.24.11-.74.34.46-3.32.71-6.4,1.32-9.4,1.51-7.45,5.68-13.34,11.33-18.19,4.37-3.76,9.01-7.2,13.41-10.93,2.02-1.71,3.85-3.68,5.59-5.69.85-.98,1.46-2.25,1.86-3.5.36-1.12.97-1.8,1.91-2.42,4.44-2.89,8.84-5.83,13.26-8.75.3-.2.6-.39,1.01-.65Z"/>
  <path class="cls-1" d="M145.29,22.98v11.5c-1.69,0-3.31.05-4.92-.02-.83-.03-1.17.26-1.43,1.05-4.05,12.26-8.13,24.51-12.21,36.76-.11.34-.24.67-.36,1.01h-11.8c4.19-12.95,8.34-25.79,12.54-38.79h-5.6v-11.51h23.79Z"/>
  <path class="cls-1" d="M79.51,72.53c-1.37-4.07-2.64-7.85-3.91-11.63-2.82-8.42-5.66-16.84-8.44-25.28-.31-.94-.73-1.21-1.67-1.17-1.65.08-3.3.02-5.02.02v-11.49h26.93c0,.62,0,1.22,0,1.82,0,2.89-.03,5.77.02,8.66.01.83-.27,1.06-1.06,1.03-1.4-.05-2.8-.01-4.35-.01.58,1.81,1.1,3.47,1.64,5.13,1.06,3.29,2.13,6.57,3.17,9.86.12.39.23.88.11,1.24-2.42,7.19-4.87,14.37-7.4,21.81Z"/>
  <path class="cls-1" d="M232.79,19.01c-.08-.6-.13-1.06-.21-1.51-.5-2.88-2.22-4.7-5.06-5.19-1.67-.29-3.46-.35-5.14-.11-2.79.4-4.75,2.12-5.94,4.68-1.27,2.72-1.76,5.63-1.93,8.59-.06,1.02-.31,1.31-1.39,1.25-4.43-.25-8.86-.37-13.48-.55.13-1.63.2-3.2.38-4.75.38-3.42,1.22-6.72,2.77-9.82,2.45-4.91,6.32-8.24,11.51-9.83,7.78-2.38,15.63-2.39,23.38.2,3.98,1.33,7.31,3.69,9.76,7.33-4.88,3.24-9.73,6.45-14.65,9.71Z"/>
  <path class="cls-1" d="M250.46,72.44h-51.81c.48-.35.74-.57,1.03-.76,5.41-3.58,10.81-7.18,16.24-10.72.53-.35,1.25-.56,1.88-.56,5.95-.04,11.9-.02,17.85-.02h1.31v-9.16h14.34c-.28,7.09-.56,14.11-.85,21.22Z"/>
  <path class="cls-1" d="M246.52,84.65h1.24c.74,2.73,1.47,5.43,2.19,8.12.06,0,.13,0,.19,0,.74-2.7,1.48-5.39,2.23-8.13h1.31c.82,3.17,1.65,6.36,2.49,9.57-.91.34-1.31.13-1.5-.85-.44-2.3-1.01-4.57-1.7-6.89-.71,2.59-1.43,5.19-2.14,7.76-1.54.24-1.55.24-1.92-1.18-.54-2.05-1.05-4.11-1.59-6.16-.03-.13-.12-.24-.25-.5-.65,2.72-1.27,5.3-1.88,7.89h-1.26c.87-3.26,1.72-6.45,2.58-9.66Z"/>
  <path class="cls-1" d="M214.9,89.02c-1-1.44-1.98-2.83-2.98-4.27,1.13-.36,1.8-.11,2.22.86.21.49.56.92.86,1.37,1.3,1.97,1.5,2.07,4.01,1.92v-4.22h1.28v9.63c-1.83,0-3.63.08-5.41-.03-1.31-.08-2.03-.96-2.18-2.28-.14-1.25.46-2.3,1.59-2.79.23-.1.47-.16.62-.2ZM219.01,90.03c-1.2,0-2.32-.06-3.42.02-.92.06-1.57.59-1.6,1.58-.03.91.43,1.58,1.36,1.64,1.2.08,2.41.02,3.66.02v-3.26Z"/>
  <path class="cls-1" d="M189.91,89.59c0,4.68-4.23,5.97-6.95,4.34-2.05-1.22-2.82-4.39-1.7-6.95.92-2.08,3.25-3.09,5.5-2.39,2.01.63,3.19,2.5,3.14,4.99ZM188.64,89.67c-.05-.61-.05-1.04-.12-1.47-.27-1.52-1.41-2.64-2.77-2.76-1.61-.14-2.81.61-3.36,2.12-.49,1.38-.47,2.76.12,4.1.58,1.33,1.65,1.94,3.11,1.86,1.31-.08,2.34-.88,2.73-2.22.17-.58.21-1.2.29-1.63Z"/>
  <path class="cls-1" d="M272.78,89.49c-.01,3.69-2.77,5.93-6,4.87-2.51-.82-3.78-3.91-2.82-6.85.81-2.45,3.22-3.69,5.69-2.92,2,.63,3.14,2.4,3.13,4.89ZM271.5,89.48c.01-2.17-.94-3.67-2.55-4-1.98-.41-3.54.8-3.91,3.03-.42,2.56.79,4.78,2.73,5,.04,0,.07,0,.11,0,2.28.19,3.6-1.29,3.62-4.04Z"/>
  <path class="cls-1" d="M94.62,90.34c-.02,1.05-.55,2.68-2.27,3.66-1.52.86-3.1.83-4.62-.04-2.11-1.21-2.88-4.43-1.71-7.02.94-2.08,3.27-3.07,5.51-2.33,1.97.64,3.11,2.46,3.09,5.74ZM93.32,89.49c0-2.18-.94-3.68-2.54-4.01-1.98-.41-3.55.79-3.93,3.02-.43,2.54.79,4.79,2.73,5.02.07,0,.14,0,.22.01,2.24.13,3.51-1.33,3.52-4.03Z"/>
  <path class="cls-1" d="M40.42,94.28c-.2-.69,0-.98.71-.97,1.58.03,3.17,0,4.83,0v-3.05h-5.19c-.02-.41-.03-.71-.06-1.12h5.27v-3.52c-1.67,0-3.35,0-5.02,0-.83,0-.83-.02-.85-.97h7.13v9.62h-6.83Z"/>
  <path class="cls-1" d="M108.55,85.64c-1.69,0-3.33-.02-4.98,0-.75.01-.97-.27-.72-1h6.98v9.65h-6.78c-.23-.7-.02-.99.73-.98,1.57.03,3.15,0,4.78,0v-3.07h-5.19c-.04-.37-.06-.67-.1-1.08h5.28v-3.54Z"/>
  <path class="cls-1" d="M156.25,89.1v-4.42h1.24v9.63c-.37.02-.74.03-1.19.05v-4.03h-4.97v3.97h-1.27v-9.65h1.21v4.45h4.98Z"/>
  <path class="cls-1" d="M141.11,84.67v9.63h-6.81c-.25-.75.02-1,.75-.99,1.58.03,3.15,0,4.78,0v-3.09h-5.15c-.02-.38-.03-.65-.05-1.03h5.17v-3.57c-1.63,0-3.31-.02-4.99,0-.68.01-.95-.23-.72-.98h7.03Z"/>
  <path class="cls-1" d="M235.92,84.65v9.64h-6.79c-.23-.68-.03-.99.72-.97,1.58.03,3.15,0,4.79,0v-3.07h-5.13v-1.09h5.13v-3.52c-1.67,0-3.32-.02-4.96,0-.72.01-1.01-.22-.76-1h7Z"/>
  <path class="cls-1" d="M124.28,88.63v-3.97h1.19v9.59c-1.74,0-3.49.13-5.22-.04-1.34-.13-2.06-1.26-2.04-2.63.02-1.35.79-2.43,2.09-2.63,1.26-.2,2.55-.21,3.99-.32ZM124.2,89.83c-1.09,0-2.12-.07-3.15.02-.99.08-1.55.79-1.54,1.75,0,.9.41,1.59,1.34,1.67,1.09.1,2.2.02,3.35.02v-3.46Z"/>
  <path class="cls-1" d="M286.81,84.65h1.3v9.65c-1.7,0-3.35.11-4.99-.03-1.49-.13-2.31-1.2-2.31-2.64,0-1.41.85-2.51,2.26-2.72,1.2-.18,2.42-.18,3.75-.26v-3.99ZM286.78,89.87c-1.12,0-2.2-.09-3.26.03-.98.11-1.51.92-1.39,1.86.11.93.59,1.55,1.6,1.56,1,.01,2,0,3.05,0v-3.45Z"/>
  <path class="cls-1" d="M75.86,88.73v-4.08h1.17v9.66c-1.64,0-3.26.1-4.85-.03-1.52-.12-2.33-1.12-2.37-2.58-.04-1.48.79-2.53,2.27-2.81.59-.11,1.21-.13,1.81-.16.6-.03,1.21,0,1.96,0ZM75.78,89.84c-1.09,0-2.13-.08-3.15.02-.93.09-1.48.68-1.5,1.67-.01.84.29,1.6,1.16,1.7,1.15.13,2.33.03,3.48.03v-3.42Z"/>
  <path class="cls-1" d="M201.76,84.66v8.67c.88,0,1.65.02,2.43,0,.72-.03.88.3.69.99h-7.4c-.35-1.13.43-.98,1.05-.98.61,0,1.22,0,1.96,0v-8.67h1.26Z"/>
  <path class="cls-1" d="M169.95,93.32c.94,0,1.69.03,2.45,0,.73-.03.88.31.69.99h-7.41c-.35-1.15.44-.98,1.07-.98.64,0,1.28,0,1.99,0v-8.65c.41-.03.75-.05,1.21-.08v8.73Z"/>
  <path class="cls-1" d="M61.47,94.33h-1.17v-8.69c-1.35,0-2.63-.03-3.91.01-.7.02-.93-.24-.73-.98h5.81v9.65Z"/>
</svg>